<?xml version="1.0" encoding="UTF-8"?>
<svg height="16px" viewBox="0 0 16 16" width="16px" xmlns="http://www.w3.org/2000/svg" xmlns:xlink="http://www.w3.org/1999/xlink">
    <filter id="a" height="100%" width="100%" x="0%" y="0%">
        <feColorMatrix in="SourceGraphic" type="matrix" values="0 0 0 0 1 0 0 0 0 1 0 0 0 0 1 0 0 0 1 0"/>
    </filter>
    <mask id="b">
        <g filter="url(#a)">
            <rect fill-opacity="0.461104" height="16" width="16"/>
        </g>
    </mask>
    <clipPath id="c">
        <rect height="152" width="192"/>
    </clipPath>
    <g clip-path="url(#c)" mask="url(#b)" transform="matrix(1 0 0 1 -168 -16)">
        <path d="m 22.359375 34.320312 c -1.457031 1.449219 -2.359375 3.453126 -2.359375 5.679688 v 84 c 0 2.226562 0.902344 4.230469 2.359375 5.679688 z m 0 0" fill="#1c71d8"/>
    </g>
    <g fill="#241f31">
        <path d="m 2.726562 1 c -0.480468 0 -0.910156 0.191406 -1.222656 0.503906 l 12.992188 12.992188 c 0.3125 -0.3125 0.503906 -0.742188 0.503906 -1.222656 v -10.546876 c 0 -0.957031 -0.769531 -1.726562 -1.726562 -1.726562 z m 0 0" fill-opacity="0.33"/>
        <path d="m 14.496094 1.503906 c 0.15625 0.15625 0.28125 0.34375 0.367187 0.546875 c -0.085937 -0.203125 -0.210937 -0.390625 -0.367187 -0.546875 z m -6.496094 6.496094 l -6.496094 6.496094 c 0.3125 0.3125 0.742188 0.503906 1.222656 0.503906 h 10.546876 c 0.480468 0 0.910156 -0.191406 1.222656 -0.503906 z m 0 0"/>
    </g>
</svg>
