<?xml version="1.0" encoding="UTF-8" standalone="no"?>
<svg
   xmlns:osb="http://www.openswatchbook.org/uri/2009/osb"
   xmlns:dc="http://purl.org/dc/elements/1.1/"
   xmlns:cc="http://creativecommons.org/ns#"
   xmlns:rdf="http://www.w3.org/1999/02/22-rdf-syntax-ns#"
   xmlns:svg="http://www.w3.org/2000/svg"
   xmlns="http://www.w3.org/2000/svg"
   xmlns:xlink="http://www.w3.org/1999/xlink"
   xmlns:sodipodi="http://sodipodi.sourceforge.net/DTD/sodipodi-0.dtd"
   xmlns:inkscape="http://www.inkscape.org/namespaces/inkscape"
   inkscape:export-ydpi="96"
   inkscape:export-xdpi="96"
   inkscape:export-filename="Template.png"
   width="192"
   height="152"
   id="svg11300"
   sodipodi:version="0.32"
   inkscape:version="1.0.2 (e86c870879, 2021-01-15)"
   sodipodi:docname="org.gnome.Tetravex.Source.svg"
   inkscape:output_extension="org.inkscape.output.svg.inkscape"
   version="1.0"
   style="display:inline;enable-background:new"
   viewBox="0 0 192 152">
  <title
     id="title4162">Adwaita Icon Template</title>
  <defs
     id="defs3">
    <linearGradient
       inkscape:collect="always"
       id="linearGradient1349">
      <stop
         style="stop-color:#57e389;stop-opacity:1"
         offset="0"
         id="stop1345" />
      <stop
         id="stop1355"
         offset="0.05800367"
         style="stop-color:#26a269;stop-opacity:1" />
      <stop
         style="stop-color:#1a7049;stop-opacity:1"
         offset="0.09851477"
         id="stop1394" />
      <stop
         id="stop1353"
         offset="0.95462161"
         style="stop-color:#26a269;stop-opacity:1" />
      <stop
         style="stop-color:#2ec27e;stop-opacity:1"
         offset="1"
         id="stop1347" />
    </linearGradient>
    <linearGradient
       y2="236"
       x2="96"
       y1="236"
       x1="32"
       gradientTransform="translate(604.81684,170.58641)"
       gradientUnits="userSpaceOnUse"
       id="linearGradient1099"
       xlink:href="#linearGradient1036" />
    <linearGradient
       id="linearGradient1036">
      <stop
         id="stop1032"
         offset="0"
         style="stop-color:#d5d3cf;stop-opacity:1;" />
      <stop
         id="stop1034"
         offset="1"
         style="stop-color:#f6f5f4;stop-opacity:1" />
    </linearGradient>
    <radialGradient
       r="32"
       fy="-76"
       fx="-244"
       cy="-76"
       cx="-244"
       gradientTransform="matrix(0.88333331,0,0,0.88333331,-460.35018,463.11973)"
       gradientUnits="userSpaceOnUse"
       id="radialGradient1103"
       xlink:href="#linearGradient1069" />
    <linearGradient
       id="linearGradient1069">
      <stop
         id="stop1065"
         offset="0"
         style="stop-color:#d5d3cf;stop-opacity:1" />
      <stop
         id="stop1067-1"
         offset="1"
         style="stop-color:#949390;stop-opacity:1" />
    </linearGradient>
    <linearGradient
       gradientUnits="userSpaceOnUse"
       y2="232"
       x2="64"
       y1="262.5"
       x1="64"
       id="linearGradient1027"
       xlink:href="#linearGradient1025"
       gradientTransform="translate(-470.5864,432.81685)" />
    <linearGradient
       id="linearGradient1025">
      <stop
         id="stop1021"
         offset="0"
         style="stop-color:#9a9996;stop-opacity:1" />
      <stop
         id="stop1023"
         offset="1"
         style="stop-color:#77767b;stop-opacity:1" />
    </linearGradient>
    <inkscape:path-effect
       effect="spiro"
       id="path-effect35304-9"
       is_visible="true" />
    <clipPath
       clipPathUnits="userSpaceOnUse"
       id="clipPath1609-7">
      <path
         sodipodi:nodetypes="cccccc"
         inkscape:connector-curvature="0"
         id="path1611-5"
         d="m 252,116 28,-28 v -8 h -36 v 36 z"
         style="fill:#e74747;stroke:none;stroke-width:0.25px;stroke-linecap:butt;stroke-linejoin:miter;stroke-opacity:1" />
    </clipPath>
    <linearGradient
       id="linearGradient1697">
      <stop
         id="stop1685"
         offset="0"
         style="stop-color:#deddda;stop-opacity:1" />
      <stop
         style="stop-color:#eeeeec;stop-opacity:1"
         offset="0.04545455"
         id="stop1687" />
      <stop
         id="stop1689"
         offset="0.09090909"
         style="stop-color:#deddda;stop-opacity:1" />
      <stop
         style="stop-color:#deddda;stop-opacity:1"
         offset="0.90909094"
         id="stop1691" />
      <stop
         id="stop1693"
         offset="0.95454544"
         style="stop-color:#eeeeec;stop-opacity:1" />
      <stop
         id="stop1695"
         offset="1"
         style="stop-color:#c0bfbc;stop-opacity:1" />
    </linearGradient>
    <clipPath
       clipPathUnits="userSpaceOnUse"
       id="clipPath1289">
      <path
         style="display:inline;opacity:1;vector-effect:none;fill:none;fill-opacity:1;stroke:#000000;stroke-width:4;stroke-linecap:round;stroke-linejoin:round;stroke-miterlimit:4;stroke-dasharray:none;stroke-dashoffset:0;stroke-opacity:1;marker:none;marker-start:none;marker-mid:none;marker-end:none;paint-order:normal;enable-background:new"
         d="m 64,-148 h 64 l 64,-64 64,64 h 192 c 17.728,0 32,14.272 32,32 v 288 c 0,17.728 -14.272,32 -32,32 H 256 l -64,-64 -64,64 H 64 C 46.272,204 32,189.728 32,172 v -288 c 0,-17.728 14.408898,-34.19889 32,-32 z"
         id="path1291"
         inkscape:connector-curvature="0"
         sodipodi:nodetypes="scccsssscccssss" />
    </clipPath>
    <linearGradient
       id="paint3_linear-2-6-5"
       x2="1"
       gradientUnits="userSpaceOnUse"
       gradientTransform="matrix(0,6,-12,0,-64,209.99687)">
      <stop
         stop-color="#C01C27"
         id="stop91-0-7-4" />
      <stop
         offset="1"
         stop-color="#E01B24"
         id="stop93-2-5-7" />
    </linearGradient>
    <clipPath
       clipPathUnits="userSpaceOnUse"
       id="clipPath1609">
      <path
         sodipodi:nodetypes="cccccc"
         inkscape:connector-curvature="0"
         id="path1611"
         d="m 252,116 28,-28 v -8 h -36 v 36 z"
         style="fill:#e74747;stroke:none;stroke-width:0.25px;stroke-linecap:butt;stroke-linejoin:miter;stroke-opacity:1" />
    </clipPath>
    <linearGradient
       inkscape:collect="always"
       xlink:href="#linearGradient1349"
       id="linearGradient1351"
       x1="12"
       y1="280"
       x2="114.92955"
       y2="280"
       gradientUnits="userSpaceOnUse" />
    <linearGradient
       osb:paint="solid"
       id="linearGradient7212">
      <stop
         style="stop-color:#000000;stop-opacity:1;"
         offset="0"
         id="stop7214" />
    </linearGradient>
    <linearGradient
       gradientTransform="translate(-161.0127)"
       y2="280"
       x2="114.92955"
       y1="280"
       x1="12"
       gradientUnits="userSpaceOnUse"
       id="linearGradient960"
       xlink:href="#linearGradient1349"
       inkscape:collect="always" />
  </defs>
  <sodipodi:namedview
     stroke="#ef2929"
     fill="#f57900"
     id="base"
     pagecolor="#ffffff"
     bordercolor="#666666"
     borderopacity="0.25490196"
     inkscape:pageopacity="0.0"
     inkscape:pageshadow="2"
     inkscape:zoom="1"
     inkscape:cx="54.41278"
     inkscape:cy="97.874745"
     inkscape:current-layer="layer9"
     showgrid="false"
     inkscape:grid-bbox="true"
     inkscape:document-units="px"
     inkscape:showpageshadow="false"
     inkscape:window-width="2560"
     inkscape:window-height="1376"
     inkscape:window-x="26"
     inkscape:window-y="23"
     width="400px"
     height="300px"
     inkscape:snap-nodes="true"
     inkscape:snap-bbox="true"
     objecttolerance="7"
     gridtolerance="12"
     guidetolerance="13"
     inkscape:window-maximized="0"
     inkscape:pagecheckerboard="false"
     showguides="false"
     inkscape:guide-bbox="true"
     inkscape:locked="false"
     inkscape:measure-start="0,0"
     inkscape:measure-end="0,0"
     inkscape:object-nodes="true"
     inkscape:bbox-nodes="true"
     inkscape:snap-global="true"
     inkscape:object-paths="true"
     inkscape:snap-intersection-paths="true"
     inkscape:snap-bbox-edge-midpoints="true"
     inkscape:snap-bbox-midpoints="true"
     showborder="true"
     inkscape:snap-center="true"
     inkscape:snap-object-midpoints="true"
     inkscape:snap-midpoints="true"
     inkscape:snap-smooth-nodes="true"
     inkscape:snap-text-baseline="true"
     borderlayer="true"
     inkscape:document-rotation="0">
    <inkscape:grid
       type="xygrid"
       id="grid5883"
       spacingx="2"
       spacingy="2"
       enabled="true"
       visible="true"
       empspacing="4"
       originx="8"
       originy="8" />
    <sodipodi:guide
       position="72,16"
       orientation="0,1"
       id="guide1073"
       inkscape:locked="false"
       inkscape:label=""
       inkscape:color="rgb(0,0,255)" />
    <sodipodi:guide
       position="20,72"
       orientation="1,0"
       id="guide1075"
       inkscape:locked="false"
       inkscape:label=""
       inkscape:color="rgb(0,0,255)" />
    <sodipodi:guide
       position="72,112"
       orientation="0,1"
       id="guide1099"
       inkscape:locked="false"
       inkscape:label=""
       inkscape:color="rgb(0,0,255)" />
    <sodipodi:guide
       position="72,136"
       orientation="0,1"
       id="guide993"
       inkscape:locked="false"
       inkscape:label=""
       inkscape:color="rgb(0,0,255)" />
    <sodipodi:guide
       position="112,72"
       orientation="1,0"
       id="guide995"
       inkscape:locked="false"
       inkscape:label=""
       inkscape:color="rgb(0,0,255)" />
    <sodipodi:guide
       position="8.0000001,72"
       orientation="1,0"
       id="guide867"
       inkscape:locked="false"
       inkscape:label=""
       inkscape:color="rgb(0,0,255)" />
    <sodipodi:guide
       position="128,72"
       orientation="1,0"
       id="guide869"
       inkscape:locked="false"
       inkscape:label=""
       inkscape:color="rgb(0,0,255)" />
    <sodipodi:guide
       position="72,124"
       orientation="0,1"
       id="guide871"
       inkscape:locked="false"
       inkscape:label=""
       inkscape:color="rgb(0,0,255)" />
    <inkscape:grid
       type="xygrid"
       id="grid873"
       spacingx="1"
       spacingy="1"
       empspacing="8"
       color="#000000"
       opacity="0.49019608"
       empcolor="#000000"
       empopacity="0.08627451"
       dotted="true"
       originx="8"
       originy="8" />
    <sodipodi:guide
       position="32,72"
       orientation="1,0"
       id="guide877"
       inkscape:locked="false"
       inkscape:label=""
       inkscape:color="rgb(0,0,255)" />
    <sodipodi:guide
       position="124,72"
       orientation="1,0"
       id="guide879"
       inkscape:locked="false"
       inkscape:label=""
       inkscape:color="rgb(0,0,255)" />
    <sodipodi:guide
       position="72,128"
       orientation="0,1"
       id="guide881"
       inkscape:locked="false"
       inkscape:label=""
       inkscape:color="rgb(0,0,255)" />
    <sodipodi:guide
       position="72,20"
       orientation="0,1"
       id="guide883"
       inkscape:locked="false"
       inkscape:label=""
       inkscape:color="rgb(0,0,255)" />
    <sodipodi:guide
       position="16,72"
       orientation="1,0"
       id="guide885"
       inkscape:locked="false"
       inkscape:label=""
       inkscape:color="rgb(0,0,255)" />
    <sodipodi:guide
       position="136,72"
       orientation="1,0"
       id="guide887"
       inkscape:locked="false"
       inkscape:label=""
       inkscape:color="rgb(0,0,255)" />
    <sodipodi:guide
       position="72,8"
       orientation="0,1"
       id="guide897"
       inkscape:locked="false"
       inkscape:label=""
       inkscape:color="rgb(0,0,255)" />
    <sodipodi:guide
       position="72,32"
       orientation="0,1"
       id="guide899"
       inkscape:locked="false"
       inkscape:label=""
       inkscape:color="rgb(0,0,255)" />
    <sodipodi:guide
       position="264,264"
       orientation="-0.70710678,0.70710678"
       id="guide950"
       inkscape:locked="false"
       inkscape:label=""
       inkscape:color="rgb(0,0,255)" />
    <sodipodi:guide
       position="72,72"
       orientation="0.70710678,0.70710678"
       id="guide952"
       inkscape:locked="false"
       inkscape:label=""
       inkscape:color="rgb(0,0,255)" />
  </sodipodi:namedview>
  <metadata
     id="metadata4">
    <rdf:RDF>
      <cc:Work
         rdf:about="">
        <dc:format>image/svg+xml</dc:format>
        <dc:type
           rdf:resource="http://purl.org/dc/dcmitype/StillImage" />
        <dc:creator>
          <cc:Agent>
            <dc:title>GNOME Design Team</dc:title>
          </cc:Agent>
        </dc:creator>
        <dc:source />
        <cc:license
           rdf:resource="http://creativecommons.org/licenses/by-sa/4.0/" />
        <dc:title>Adwaita Icon Template</dc:title>
        <dc:subject>
          <rdf:Bag />
        </dc:subject>
        <dc:date />
        <dc:rights>
          <cc:Agent>
            <dc:title />
          </cc:Agent>
        </dc:rights>
        <dc:publisher>
          <cc:Agent>
            <dc:title />
          </cc:Agent>
        </dc:publisher>
        <dc:identifier />
        <dc:relation />
        <dc:language />
        <dc:coverage />
        <dc:description />
        <dc:contributor>
          <cc:Agent>
            <dc:title />
          </cc:Agent>
        </dc:contributor>
      </cc:Work>
      <cc:License
         rdf:about="http://creativecommons.org/licenses/by-sa/4.0/">
        <cc:permits
           rdf:resource="http://creativecommons.org/ns#Reproduction" />
        <cc:permits
           rdf:resource="http://creativecommons.org/ns#Distribution" />
        <cc:requires
           rdf:resource="http://creativecommons.org/ns#Notice" />
        <cc:requires
           rdf:resource="http://creativecommons.org/ns#Attribution" />
        <cc:permits
           rdf:resource="http://creativecommons.org/ns#DerivativeWorks" />
        <cc:requires
           rdf:resource="http://creativecommons.org/ns#ShareAlike" />
      </cc:License>
    </rdf:RDF>
  </metadata>
  <g
     id="layer1"
     inkscape:label="App Icon"
     inkscape:groupmode="layer"
     style="display:inline"
     transform="translate(8,-156)">
    <g
       inkscape:groupmode="layer"
       id="layer4"
       inkscape:label="template"
       style="display:inline">
      <rect
         inkscape:label="0"
         y="172"
         x="9.2651362e-08"
         height="128"
         width="128"
         id="hicolor"
         style="display:inline;overflow:visible;visibility:visible;fill:#f0f0f0;fill-opacity:0;fill-rule:nonzero;stroke:none;stroke-width:0.5;marker:none;enable-background:accumulate" />
      <rect
         style="display:inline;overflow:visible;visibility:visible;fill:#f0f0f0;fill-opacity:0;fill-rule:nonzero;stroke:none;stroke-width:0.5;marker:none;enable-background:accumulate"
         id="symbolic"
         width="16"
         height="16"
         x="160"
         y="172"
         inkscape:label="0" />
    </g>
    <g
       inkscape:groupmode="layer"
       id="layer2"
       inkscape:label="baseplate"
       style="display:inline"
       sodipodi:insensitive="true">
      <g
         style="display:inline;fill:#000000;enable-background:new"
         transform="matrix(7.9911709,0,0,8.0036407,-167.7909,-4846.0776)"
         id="g12027"
         inkscape:export-xdpi="12"
         inkscape:export-ydpi="12" />
      <rect
         style="display:inline;overflow:visible;visibility:visible;fill:#f0f0f0;fill-opacity:1;fill-rule:nonzero;stroke:none;stroke-width:0.5;marker:none;enable-background:accumulate"
         id="128"
         width="128"
         height="128"
         x="9.2651362e-08"
         y="172"
         inkscape:label="0" />
      <g
         id="g883"
         style="fill:none;fill-opacity:0.25098;stroke:#a579b3;stroke-opacity:1"
         transform="translate(-24,24)" />
      <g
         id="g900"
         style="fill:none;fill-opacity:0.25098;stroke:#a579b3;stroke-opacity:1"
         transform="translate(-24,24)" />
      <rect
         inkscape:label=""
         y="172"
         x="160"
         height="16"
         width="16"
         id="16"
         style="display:inline;overflow:visible;visibility:visible;fill:#f0f0f0;fill-opacity:1;fill-rule:nonzero;stroke:none;stroke-width:0.5;marker:none;enable-background:accumulate" />
      <text
         xml:space="preserve"
         style="font-style:normal;font-variant:normal;font-weight:bold;font-stretch:normal;font-size:4px;line-height:125%;font-family:Cantarell;-inkscape-font-specification:'Cantarell, Bold';text-align:start;writing-mode:lr-tb;text-anchor:start;display:inline;fill:#000000;fill-opacity:1;stroke:none;stroke-width:0.332649;enable-background:new"
         x="0"
         y="167"
         id="text863"
         inkscape:label="icon-name"><tspan
           style="font-size:4px;stroke-width:0.332649"
           sodipodi:role="line"
           id="tspan861"
           x="0"
           y="167">Hicolor</tspan></text>
      <text
         inkscape:label="icon-name"
         id="text867"
         y="167"
         x="160"
         style="font-style:normal;font-variant:normal;font-weight:bold;font-stretch:normal;font-size:4px;line-height:125%;font-family:Cantarell;-inkscape-font-specification:'Cantarell, Bold';text-align:start;writing-mode:lr-tb;text-anchor:start;display:inline;fill:#000000;fill-opacity:1;stroke:none;stroke-width:0.332649;enable-background:new"
         xml:space="preserve"><tspan
           y="167"
           x="160"
           id="tspan865"
           sodipodi:role="line"
           style="font-size:4px;stroke-width:0.332649">Symbolic</tspan></text>
    </g>
    <g
       inkscape:groupmode="layer"
       id="layer9"
       inkscape:label="icons"
       style="display:inline">
      <rect
         ry="8"
         rx="7.999999"
         y="188"
         x="12.00003"
         height="100"
         width="104"
         id="rect1048"
         style="display:inline;vector-effect:none;fill:url(#linearGradient1351);fill-opacity:1;stroke:none;stroke-width:0.25;stroke-linecap:butt;stroke-linejoin:miter;stroke-miterlimit:4;stroke-dasharray:none;stroke-dashoffset:0;stroke-opacity:1;marker:none;marker-start:none;marker-mid:none;marker-end:none;paint-order:normal;enable-background:new" />
      <rect
         style="display:inline;vector-effect:none;fill:#deddda;fill-opacity:1;stroke:none;stroke-width:0.25;stroke-linecap:butt;stroke-linejoin:miter;stroke-miterlimit:4;stroke-dasharray:none;stroke-dashoffset:0;stroke-opacity:1;marker:none;marker-start:none;marker-mid:none;marker-end:none;paint-order:normal;enable-background:new"
         id="rect929-36-9"
         width="104"
         height="99.999992"
         x="12.00003"
         y="184"
         rx="7.9999986"
         ry="8" />
      <path
         id="rect1316"
         style="display:inline;vector-effect:none;fill:#f6f5f4;fill-opacity:1;stroke:none;stroke-width:0.25;stroke-linecap:butt;stroke-linejoin:miter;stroke-miterlimit:4;stroke-dasharray:none;stroke-dashoffset:0;stroke-opacity:1;marker:none;marker-start:none;marker-mid:none;marker-end:none;paint-order:normal;enable-background:new"
         d="M 14.386719,281.64645 C 12.913578,280.19703 12,278.18085 12,275.94137 v -83.64645 c 0,-4.432 3.568001,-8 8,-8 h 88 c 2.19253,0 4.17102,0.87589 5.61328,2.29492 z"
         sodipodi:nodetypes="csssscc" />
      <path
         id="rect1338"
         style="display:inline;opacity:0.461104;vector-effect:none;fill:#1c71d8;fill-opacity:1;stroke:none;stroke-width:0.25;stroke-linecap:butt;stroke-linejoin:miter;stroke-miterlimit:4;stroke-dasharray:none;stroke-dashoffset:0;stroke-opacity:1;marker:none;marker-start:none;marker-mid:none;marker-end:none;paint-order:normal;enable-background:new"
         d="M 22.357422 34.320312 C 20.900477 35.767733 20 37.774515 20 40 L 20 124 C 20 126.22548 20.900477 128.23227 22.357422 129.67969 L 22.357422 34.320312 z "
         transform="translate(-8,156)" />
      <path
         d="m 109.73686,281.62081 c -1.4494,1.47317 -3.4656,2.38672 -5.70508,2.38672 H 20.031779 c -4.431997,-10e-6 -7.999991,-3.568 -8.000006,-8.00001 l 1e-5,-83.74999 c -7e-6,-2.19254 0.875888,-4.17102 2.29492,-5.61329 z"
         style="display:inline;vector-effect:none;fill:#99c1f1;fill-opacity:1;stroke:none;stroke-width:0.25;stroke-linecap:butt;stroke-linejoin:miter;stroke-miterlimit:4;stroke-dasharray:none;stroke-dashoffset:0;stroke-opacity:1;marker:none;marker-start:none;marker-mid:none;marker-end:none;paint-order:normal;enable-background:new"
         id="path1331"
         sodipodi:nodetypes="csccccc" />
      <path
         id="rect1357"
         style="display:inline;vector-effect:none;fill:#813d9c;fill-opacity:1;stroke:none;stroke-width:0.25;stroke-linecap:butt;stroke-linejoin:miter;stroke-miterlimit:4;stroke-dasharray:none;stroke-dashoffset:0;stroke-opacity:1;marker:none;marker-start:none;marker-mid:none;marker-end:none;paint-order:normal;enable-background:new"
         d="m 113.66541,264.06445 c -0.0869,6.23621 -0.0873,21.66445 -0.0873,21.66445 1.56651,-1.45766 2.54688,-3.5354 2.54688,-5.8539 v -15.81055 z"
         sodipodi:nodetypes="ccscc" />
      <path
         d="m 113.72656,186.29492 c 1.47314,1.44942 2.38672,3.4656 2.38672,5.70508 v 84 c 0,4.432 -3.568,8 -8,8 h -88 c -2.19253,0 -4.17102,-0.87589 -5.61328,-2.29492 z"
         style="display:inline;vector-effect:none;fill:#c061cb;fill-opacity:1;stroke:none;stroke-width:0.25;stroke-linecap:butt;stroke-linejoin:miter;stroke-miterlimit:4;stroke-dasharray:none;stroke-dashoffset:0;stroke-opacity:1;marker:none;marker-start:none;marker-mid:none;marker-end:none;paint-order:normal;enable-background:new"
         id="path1329" />
      <path
         id="path1333"
         style="display:inline;vector-effect:none;fill:#57e389;fill-opacity:1;stroke:none;stroke-width:0.25;stroke-linecap:butt;stroke-linejoin:miter;stroke-miterlimit:4;stroke-dasharray:none;stroke-dashoffset:0;stroke-opacity:1;marker:none;marker-start:none;marker-mid:none;marker-end:none;paint-order:normal;enable-background:new"
         d="m 19.999919,283.99999 c -2.22198,0 -4.22693,-0.89672 -5.67383,-2.34961 l 48.660686,-46.5672 50.626425,46.71564 c -1.44226,1.41903 -3.42075,2.20117 -5.61328,2.20117 z"
         sodipodi:nodetypes="scccss" />
      <g
         aria-label="9"
         id="text1368"
         style="font-style:normal;font-variant:normal;font-weight:normal;font-stretch:normal;font-size:24.1561px;line-height:1.25;font-family:Anton;-inkscape-font-specification:'Anton, Normal';font-variant-ligatures:normal;font-variant-caps:normal;font-variant-numeric:normal;font-variant-east-asian:normal;text-align:center;letter-spacing:0px;word-spacing:0px;text-anchor:middle;fill:#3d3846;fill-opacity:1;stroke:none;stroke-width:1" />
      <g
         aria-label="4"
         id="text1372"
         style="font-style:normal;font-variant:normal;font-weight:normal;font-stretch:normal;font-size:24.1561px;line-height:1.25;font-family:Anton;-inkscape-font-specification:'Anton, Normal';font-variant-ligatures:normal;font-variant-caps:normal;font-variant-numeric:normal;font-variant-east-asian:normal;text-align:center;letter-spacing:0px;word-spacing:0px;text-anchor:middle;fill:#3d3846;fill-opacity:1;stroke:none;stroke-width:1" />
      <g
         aria-label="8"
         id="text1376"
         style="font-style:normal;font-variant:normal;font-weight:normal;font-stretch:normal;font-size:24.1561px;line-height:1.25;font-family:Anton;-inkscape-font-specification:'Anton, Normal';font-variant-ligatures:normal;font-variant-caps:normal;font-variant-numeric:normal;font-variant-east-asian:normal;text-align:center;letter-spacing:0px;word-spacing:0px;text-anchor:middle;fill:#ffffff;fill-opacity:1;stroke:none;stroke-width:1" />
      <g
         aria-label="6"
         id="text1380"
         style="font-style:normal;font-variant:normal;font-weight:normal;font-stretch:normal;font-size:24.1561px;line-height:1.25;font-family:Anton;-inkscape-font-specification:'Anton, Normal';font-variant-ligatures:normal;font-variant-caps:normal;font-variant-numeric:normal;font-variant-east-asian:normal;text-align:center;letter-spacing:0px;word-spacing:0px;text-anchor:middle;fill:#3d3846;fill-opacity:1;stroke:none;stroke-width:1" />
      <path
         id="rect1396"
         style="opacity:1;fill:#241f31;fill-opacity:0.33000001;stroke:none;stroke-width:1px;stop-color:#000000"
         d="M 170.72656 17 C 170.24804 17 169.81616 17.191655 169.50391 17.503906 L 182.49609 30.496094 C 182.80835 30.183843 183 29.751963 183 29.273438 L 183 18.726562 C 183 17.769512 182.23049 17 181.27344 17 L 170.72656 17 z "
         transform="translate(-8,156)" />
      <path
         id="path1402"
         style="opacity:1;fill:#241f31;fill-opacity:1;stroke:none;stroke-width:1px;stop-color:#000000"
         d="M 182.49609 17.503906 C 182.6521 17.659911 182.77814 17.846007 182.86523 18.052734 C 182.77829 17.845916 182.65222 17.660031 182.49609 17.503906 z M 176 24 L 169.50391 30.496094 C 169.81616 30.808334 170.24804 31 170.72656 31 L 181.27344 31 C 181.75196 31 182.18409 30.808104 182.49609 30.496094 L 176 24 z "
         transform="translate(-8,156)" />
      <path
         inkscape:connector-curvature="0"
         d="m 191.34375,174.02491 5.625,5.625 5.625,-5.625 z m 5.65625,1 c 0.55228,0 1,0.44772 1,1 0,0.55228 -0.44772,1 -1,1 -0.55228,0 -1,-0.44772 -1,-1 0,-0.55228 0.44772,-1 1,-1 z m 7,0.40625 -5.625,5.625 5.625,5.625 z m -14,0.0625 v 11.125 l 5.5625,-5.5625 z m 2,4.53125 c 0.55228,0 1,0.44772 1,1 0,0.55228 -0.44772,1 -1,1 -0.55228,0 -1,-0.44772 -1,-1 0,-0.55228 0.44772,-1 1,-1 z m 10,0 c 0.55229,0 1,0.44772 1,1 0,0.55228 -0.44771,1 -1,1 -0.55228,0 -1,-0.44772 -1,-1 0,-0.55228 0.44772,-1 1,-1 z m -5.03125,2.4375 -5.5625,5.5625 h 11.125 z m 0.0312,2.5625 c 0.55228,0 1,0.44772 1,1 0,0.55228 -0.44772,1 -1,1 -0.55228,0 -1,-0.44772 -1,-1 0,-0.55228 0.44772,-1 1,-1 z"
         id="rect7026"
         style="fill:#bebebe;fill-opacity:1;stroke:none" />
      <rect
         style="display:inline;vector-effect:none;fill:url(#linearGradient960);fill-opacity:1;stroke:none;stroke-width:0.25;stroke-linecap:butt;stroke-linejoin:miter;stroke-miterlimit:4;stroke-dasharray:none;stroke-dashoffset:0;stroke-opacity:1;marker:none;marker-start:none;marker-mid:none;marker-end:none;paint-order:normal;enable-background:new"
         id="rect928"
         width="104"
         height="100"
         x="-149.01266"
         y="188"
         rx="7.999999"
         ry="8" />
      <rect
         ry="8"
         rx="7.9999986"
         y="184"
         x="-149.01266"
         height="99.999992"
         width="104"
         id="rect930"
         style="display:inline;vector-effect:none;fill:#deddda;fill-opacity:1;stroke:none;stroke-width:0.25;stroke-linecap:butt;stroke-linejoin:miter;stroke-miterlimit:4;stroke-dasharray:none;stroke-dashoffset:0;stroke-opacity:1;marker:none;marker-start:none;marker-mid:none;marker-end:none;paint-order:normal;enable-background:new" />
      <path
         sodipodi:nodetypes="csssscc"
         d="m -146.62598,281.64645 c -1.47314,-1.44942 -2.38672,-3.4656 -2.38672,-5.70508 v -83.64645 c 0,-4.432 3.56801,-8 8,-8 h 88.000005 c 2.19253,0 4.17102,0.87589 5.61328,2.29492 z"
         style="display:inline;vector-effect:none;fill:#f6f5f4;fill-opacity:1;stroke:none;stroke-width:0.25;stroke-linecap:butt;stroke-linejoin:miter;stroke-miterlimit:4;stroke-dasharray:none;stroke-dashoffset:0;stroke-opacity:1;marker:none;marker-start:none;marker-mid:none;marker-end:none;paint-order:normal;enable-background:new"
         id="path932" />
      <path
         d="m -146.65527,190.32031 c -1.45695,1.44742 -2.35743,3.4542 -2.35743,5.67969 v 84 c 0,2.22548 0.90048,4.23227 2.35743,5.67969 z"
         style="display:inline;opacity:0.461104;vector-effect:none;fill:#1c71d8;fill-opacity:1;stroke:none;stroke-width:0.25;stroke-linecap:butt;stroke-linejoin:miter;stroke-miterlimit:4;stroke-dasharray:none;stroke-dashoffset:0;stroke-opacity:1;marker:none;marker-start:none;marker-mid:none;marker-end:none;paint-order:normal;enable-background:new"
         id="path934" />
      <path
         sodipodi:nodetypes="csccccc"
         id="path936"
         style="display:inline;vector-effect:none;fill:#99c1f1;fill-opacity:1;stroke:none;stroke-width:0.25;stroke-linecap:butt;stroke-linejoin:miter;stroke-miterlimit:4;stroke-dasharray:none;stroke-dashoffset:0;stroke-opacity:1;marker:none;marker-start:none;marker-mid:none;marker-end:none;paint-order:normal;enable-background:new"
         d="m -51.275835,281.62081 c -1.4494,1.47317 -3.4656,2.38672 -5.70508,2.38672 h -84.000005 c -4.43199,-10e-6 -7.99999,-3.568 -8,-8.00001 l 1e-5,-83.74999 c -1e-5,-2.19254 0.87589,-4.17102 2.29492,-5.61329 z" />
      <path
         sodipodi:nodetypes="ccscc"
         d="m -47.347285,264.06445 c -0.0869,6.23621 -0.0873,21.66445 -0.0873,21.66445 1.56651,-1.45766 2.54688,-3.5354 2.54688,-5.8539 v -15.81055 z"
         style="display:inline;vector-effect:none;fill:#813d9c;fill-opacity:1;stroke:none;stroke-width:0.25;stroke-linecap:butt;stroke-linejoin:miter;stroke-miterlimit:4;stroke-dasharray:none;stroke-dashoffset:0;stroke-opacity:1;marker:none;marker-start:none;marker-mid:none;marker-end:none;paint-order:normal;enable-background:new"
         id="path938" />
      <path
         id="path940"
         style="display:inline;vector-effect:none;fill:#c061cb;fill-opacity:1;stroke:none;stroke-width:0.25;stroke-linecap:butt;stroke-linejoin:miter;stroke-miterlimit:4;stroke-dasharray:none;stroke-dashoffset:0;stroke-opacity:1;marker:none;marker-start:none;marker-mid:none;marker-end:none;paint-order:normal;enable-background:new"
         d="m -47.286135,186.29492 c 1.47314,1.44942 2.38672,3.4656 2.38672,5.70508 v 84 c 0,4.432 -3.568,8 -8,8 h -88.000005 c -2.19253,0 -4.17102,-0.87589 -5.61328,-2.29492 z" />
      <path
         sodipodi:nodetypes="scccss"
         d="m -141.01278,283.99999 c -2.22198,0 -4.22693,-0.89672 -5.67383,-2.34961 l 48.66069,-46.5672 50.626425,46.71564 c -1.44226,1.41903 -3.42075,2.20117 -5.61328,2.20117 z"
         style="display:inline;vector-effect:none;fill:#57e389;fill-opacity:1;stroke:none;stroke-width:0.25;stroke-linecap:butt;stroke-linejoin:miter;stroke-miterlimit:4;stroke-dasharray:none;stroke-dashoffset:0;stroke-opacity:1;marker:none;marker-start:none;marker-mid:none;marker-end:none;paint-order:normal;enable-background:new"
         id="path942" />
      <g
         transform="translate(-161.0127)"
         style="font-style:normal;font-variant:normal;font-weight:normal;font-stretch:normal;font-size:24.1561px;line-height:1.25;font-family:Anton;-inkscape-font-specification:'Anton, Normal';font-variant-ligatures:normal;font-variant-caps:normal;font-variant-numeric:normal;font-variant-east-asian:normal;text-align:center;letter-spacing:0px;word-spacing:0px;text-anchor:middle;fill:#3d3846;fill-opacity:1;stroke:none;stroke-width:1"
         id="g946"
         aria-label="9">
        <path
           id="path944"
           style="font-style:normal;font-variant:normal;font-weight:normal;font-stretch:normal;font-size:24.1561px;font-family:Anton;-inkscape-font-specification:'Anton, Normal';font-variant-ligatures:normal;font-variant-caps:normal;font-variant-numeric:normal;font-variant-east-asian:normal;text-align:center;text-anchor:middle;fill:#3d3846;stroke-width:1"
           d="m 63.8404,213.82034 q -1.352741,0 -2.488078,-0.45897 -1.11118,-0.48312 -1.787551,-1.40105 -0.676371,-0.91793 -0.676371,-2.22236 v -2.22236 h 3.985756 v 0.41065 q 0,1.03871 0.193249,1.64262 0.193249,0.6039 0.845464,0.6039 0.67637,0 0.942088,-0.36234 0.289873,-0.3865 0.289873,-1.13534 v -4.15485 q -0.289873,0.55559 -0.893776,0.89378 -0.603902,0.33818 -1.42521,0.33818 -1.690927,0 -2.633015,-0.67637 -0.917931,-0.67637 -1.280273,-2.00495 -0.362341,-1.32859 -0.362341,-3.50264 0,-3.30938 1.256117,-5.09694 1.256117,-1.78755 4.154849,-1.78755 2.125737,0 3.357698,0.72469 1.231961,0.72468 1.739239,2.17404 0.507278,1.44937 0.507278,3.76836 v 5.60421 q 0,3.21276 -0.386498,5.07278 -0.386497,1.83587 -1.618458,2.82627 -1.231961,0.96624 -3.72004,0.96624 z m 0.217405,-11.73987 q 1.087025,0 1.087025,-1.47352 v -2.5847 q 0,-1.52183 -1.038713,-1.52183 -0.652214,0 -0.845463,0.53143 -0.169093,0.50728 -0.169093,1.66677 v 1.69093 q 0,1.69092 0.966244,1.69092 z" />
      </g>
      <g
         transform="translate(-161.0127)"
         style="font-style:normal;font-variant:normal;font-weight:normal;font-stretch:normal;font-size:24.1561px;line-height:1.25;font-family:Anton;-inkscape-font-specification:'Anton, Normal';font-variant-ligatures:normal;font-variant-caps:normal;font-variant-numeric:normal;font-variant-east-asian:normal;text-align:center;letter-spacing:0px;word-spacing:0px;text-anchor:middle;fill:#3d3846;fill-opacity:1;stroke:none;stroke-width:1"
         id="g950"
         aria-label="4">
        <path
           id="path948"
           style="font-style:normal;font-variant:normal;font-weight:normal;font-stretch:normal;font-size:24.1561px;font-family:Anton;-inkscape-font-specification:'Anton, Normal';font-variant-ligatures:normal;font-variant-caps:normal;font-variant-numeric:normal;font-variant-east-asian:normal;text-align:center;text-anchor:middle;fill:#3d3846;stroke-width:1"
           d="m 64.685867,273.62708 v -3.28523 h -6.159805 v -3.23692 l 3.913288,-14.2521 h 6.473835 v 14.03469 h 1.11118 v 3.45433 h -1.11118 v 3.28523 z m -2.463922,-6.73956 h 2.463922 v -10.45959 z" />
      </g>
      <g
         transform="translate(-161.0127)"
         style="font-style:normal;font-variant:normal;font-weight:normal;font-stretch:normal;font-size:24.1561px;line-height:1.25;font-family:Anton;-inkscape-font-specification:'Anton, Normal';font-variant-ligatures:normal;font-variant-caps:normal;font-variant-numeric:normal;font-variant-east-asian:normal;text-align:center;letter-spacing:0px;word-spacing:0px;text-anchor:middle;fill:#ffffff;fill-opacity:1;stroke:none;stroke-width:1"
         id="g954"
         aria-label="8">
        <path
           id="path952"
           style="font-style:normal;font-variant:normal;font-weight:normal;font-stretch:normal;font-size:24.1561px;font-family:Anton;-inkscape-font-specification:'Anton, Normal';font-variant-ligatures:normal;font-variant-caps:normal;font-variant-numeric:normal;font-variant-east-asian:normal;text-align:center;text-anchor:middle;fill:#ffffff;stroke-width:1"
           d="m 97.768347,245.59939 q -2.850419,0 -4.154849,-1.61846 -1.280273,-1.61845 -1.280273,-4.7829 v -1.3769 q 0,-1.64262 0.386498,-2.60886 0.410653,-0.96624 1.401053,-1.44937 -0.942088,-0.38649 -1.352741,-1.28027 -0.410654,-0.89377 -0.410654,-2.29483 v -0.55559 q 0,-2.70548 1.352742,-3.98575 1.376897,-1.28028 4.058224,-1.28028 2.729643,0 4.058223,1.30443 1.35274,1.30443 1.35274,4.13069 0,1.59431 -0.38649,2.58471 -0.3865,0.96624 -1.3769,1.40105 1.11118,0.53144 1.44936,1.66677 0.33819,1.11118 0.33819,3.21276 0,0.41066 -0.0242,0.53144 0,3.16445 -1.28027,4.7829 -1.28027,1.61846 -4.130693,1.61846 z m 0,-13.59988 q 1.087025,0 1.087025,-1.9808 0,-0.773 -0.265717,-1.30443 -0.241561,-0.53143 -0.821308,-0.53143 -0.579746,0 -0.845463,0.53143 -0.241561,0.53143 -0.241561,1.30443 0,1.9808 1.087024,1.9808 z m 0,9.49335 q 1.135337,0 1.135337,-2.05327 l -0.02416,-1.03871 q 0,-1.18365 -0.193249,-1.90834 -0.193249,-0.72468 -0.917932,-0.72468 -0.603902,0 -0.869619,0.65222 -0.265717,0.62805 -0.265717,1.57014 0,0.41066 0.02416,0.6039 v 0.19325 l -0.02416,0.65222 q 0,2.05327 1.135336,2.05327 z" />
      </g>
      <g
         transform="translate(-161.0127)"
         style="font-style:normal;font-variant:normal;font-weight:normal;font-stretch:normal;font-size:24.1561px;line-height:1.25;font-family:Anton;-inkscape-font-specification:'Anton, Normal';font-variant-ligatures:normal;font-variant-caps:normal;font-variant-numeric:normal;font-variant-east-asian:normal;text-align:center;letter-spacing:0px;word-spacing:0px;text-anchor:middle;fill:#3d3846;fill-opacity:1;stroke:none;stroke-width:1"
         id="g958"
         aria-label="6">
        <path
           id="path956"
           style="font-style:normal;font-variant:normal;font-weight:normal;font-stretch:normal;font-size:24.1561px;font-family:Anton;-inkscape-font-specification:'Anton, Normal';font-variant-ligatures:normal;font-variant-caps:normal;font-variant-numeric:normal;font-variant-east-asian:normal;text-align:center;text-anchor:middle;fill:#3d3846;stroke-width:1"
           d="m 30.106536,245.57524 q -2.125737,0 -3.357698,-0.72469 -1.231961,-0.72468 -1.739239,-2.17404 -0.507278,-1.44937 -0.507278,-3.76836 v -5.60421 q 0,-3.21276 0.386498,-5.04863 0.410653,-1.86002 1.642614,-2.82626 1.231961,-0.9904 3.695884,-0.9904 1.352741,0 2.488078,0.45897 1.135336,0.45896 1.811707,1.37689 0.676371,0.91794 0.676371,2.22237 v 2.24651 h -4.009912 v -0.43481 q 0,-1.06287 -0.193249,-1.64261 -0.169093,-0.57975 -0.845464,-0.57975 -0.676371,0 -0.966244,0.36234 -0.265717,0.36234 -0.265717,1.11118 v 4.17901 q 0.289873,-0.57975 0.893776,-0.89378 0.603902,-0.33818 1.42521,-0.33818 1.690927,0 2.608858,0.67637 0.942088,0.67637 1.30443,2.00495 0.362341,1.32859 0.362341,3.47848 0,3.30939 -1.256117,5.1211 -1.256117,1.78755 -4.154849,1.78755 z m -0.144937,-3.81667 q 0.652215,0 0.821308,-0.50727 0.193249,-0.53144 0.193249,-1.71509 v -1.66677 q 0,-1.69093 -0.966244,-1.69093 -1.087025,0 -1.087025,1.47353 v 2.56054 q 0,1.54599 1.038712,1.54599 z" />
      </g>
      <g
         aria-label="8"
         id="text964"
         style="font-style:normal;font-variant:normal;font-weight:bold;font-stretch:normal;font-size:23.6227px;line-height:1.25;font-family:Montserrat;-inkscape-font-specification:'Montserrat, Bold';font-variant-ligatures:normal;font-variant-caps:normal;font-variant-numeric:normal;font-variant-east-asian:normal;letter-spacing:0px;word-spacing:0px;fill:#ffffff;fill-opacity:1;stroke:none;stroke-width:0.999999">
        <path
           d="m 98.441049,235.57482 c 1.228381,-0.75593 1.937061,-1.91344 1.937061,-3.40167 0,-2.90559 -2.598496,-4.72454 -6.401751,-4.72454 -3.756009,0 -6.354506,1.81895 -6.354506,4.72454 0,1.48823 0.685058,2.64574 1.913438,3.40167 -1.582721,0.80317 -2.504006,2.12604 -2.504006,3.89775 0,3.11819 2.763856,5.07888 6.945074,5.07888 4.20484,0 6.992321,-1.96069 6.992321,-5.07888 0,-1.77171 -0.92129,-3.09458 -2.527631,-3.89775 z m -4.46469,-5.31511 c 1.559098,0 2.598497,0.77955 2.598497,2.0788 0,1.252 -1.015776,2.03155 -2.598497,2.03155 -1.559098,0 -2.551252,-0.77955 -2.551252,-2.03155 0,-1.29925 1.015776,-2.0788 2.551252,-2.0788 z m 0,11.48064 c -1.889816,0 -3.070951,-0.92129 -3.070951,-2.3859 0,-1.4646 1.181135,-2.36227 3.070951,-2.36227 1.913439,0 3.118196,0.89767 3.118196,2.36227 0,1.46461 -1.204757,2.3859 -3.118196,2.3859 z"
           style="fill:#ffffff;stroke-width:0.999999"
           id="path126" />
      </g>
      <g
         aria-label="6"
         id="text968"
         style="font-style:normal;font-variant:normal;font-weight:bold;font-stretch:normal;font-size:23.6227px;line-height:1.25;font-family:Montserrat;-inkscape-font-specification:'Montserrat, Bold';font-variant-ligatures:normal;font-variant-caps:normal;font-variant-numeric:normal;font-variant-east-asian:normal;letter-spacing:0px;word-spacing:0px;fill:#3d3846;fill-opacity:1;stroke:none;stroke-width:0.999999">
        <path
           d="m 36.142866,234.45492 c -1.724457,0 -3.118197,0.49608 -4.086727,1.46461 0.118113,-3.16544 1.889816,-4.79541 4.653672,-4.79541 1.110267,0 2.173288,0.21261 3.094573,0.8268 l 1.417362,-2.81111 c -1.157512,-0.7323 -2.858346,-1.13389 -4.606426,-1.13389 -4.98439,0 -8.433304,3.18907 -8.433304,8.90576 0,5.33873 2.834724,8.19708 7.393905,8.19708 3.49616,0 6.260015,-2.12604 6.260015,-5.50409 0,-3.1182 -2.504006,-5.14975 -5.69307,-5.14975 z m -0.779549,7.79549 c -1.842571,0 -2.905592,-1.0394 -2.905592,-2.45676 0,-1.44098 1.181135,-2.48038 2.858346,-2.48038 1.700835,0 2.811102,0.96853 2.811102,2.48038 0,1.51185 -1.13389,2.45676 -2.763856,2.45676 z"
           style="fill:#3d3846;stroke-width:0.999999"
           id="path129" />
      </g>
      <g
         aria-label="4"
         id="text972"
         style="font-style:normal;font-variant:normal;font-weight:bold;font-stretch:normal;font-size:23.3866px;line-height:1.25;font-family:Montserrat;-inkscape-font-specification:'Montserrat, Bold';font-variant-ligatures:normal;font-variant-caps:normal;font-variant-numeric:normal;font-variant-east-asian:normal;letter-spacing:0px;word-spacing:0px;fill:#3d3846;fill-opacity:1;stroke:none;stroke-width:0.999999">
        <path
           d="m 69.588965,261.76573 h -2.666072 v -3.06365 h -3.57815 v 3.06365 h -4.396681 l 7.1563,-9.84576 H 62.12864 l -7.717578,10.38365 v 2.54914 h 8.816748 v 3.43783 h 3.695083 v -3.43783 h 2.666072 z"
           style="fill:#3d3846;stroke-width:0.999999"
           id="path135" />
      </g>
      <g
         aria-label="9"
         id="text976"
         style="font-style:normal;font-variant:normal;font-weight:bold;font-stretch:normal;font-size:22.4989px;line-height:1.25;font-family:Montserrat;-inkscape-font-specification:'Montserrat, Bold';font-variant-ligatures:normal;font-variant-caps:normal;font-variant-numeric:normal;font-variant-east-asian:normal;letter-spacing:0px;word-spacing:0px;fill:#3d3846;fill-opacity:1;stroke:none;stroke-width:0.999999">
        <path
           d="m 63.432599,199.9105 c -3.329837,0 -5.962209,2.0249 -5.962209,5.24225 0,2.96985 2.384884,4.90476 5.422235,4.90476 1.64242,0 2.992354,-0.49498 3.914809,-1.41744 -0.112495,3.03736 -1.822411,4.58978 -4.432283,4.58978 -1.079948,0 -2.092398,-0.20249 -2.947356,-0.78746 l -1.349934,2.67737 c 1.102446,0.69746 2.699868,1.07994 4.364786,1.07994 4.769767,0 8.032107,-3.03735 8.032107,-8.48208 0,-5.08475 -2.677369,-7.80712 -7.042155,-7.80712 z m 0.269987,7.42464 c -1.619921,0 -2.677369,-0.92246 -2.677369,-2.36239 0,-1.43993 1.079947,-2.33988 2.632371,-2.33988 1.732415,0 2.744866,0.98995 2.744866,2.33988 0,1.37244 -1.102447,2.36239 -2.699868,2.36239 z"
           style="fill:#3d3846;stroke-width:0.999999"
           id="path132" />
      </g>
    </g>
    <g
       inkscape:groupmode="layer"
       id="layer3"
       inkscape:label="grid"
       style="display:none"
       sodipodi:insensitive="true">
      <circle
         cx="64.000031"
         cy="236"
         r="59.504131"
         id="circle2892"
         style="display:inline;opacity:0.1;vector-effect:none;fill:none;fill-opacity:1;stroke:#000000;stroke-width:0.99;stroke-linecap:butt;stroke-linejoin:miter;stroke-miterlimit:4;stroke-dasharray:0.99, 0.99;stroke-dashoffset:0;stroke-opacity:1;marker:none;marker-start:none;marker-mid:none;marker-end:none;paint-order:normal;enable-background:new" />
      <rect
         ry="7.9292889"
         rx="8.701004"
         y="180.49496"
         x="20.495007"
         height="111.01005"
         width="87.009987"
         id="rect2894"
         style="display:inline;opacity:0.1;vector-effect:none;fill:none;fill-opacity:1;stroke:#000000;stroke-width:0.99;stroke-linecap:butt;stroke-linejoin:miter;stroke-miterlimit:4;stroke-dasharray:0.99, 0.99;stroke-dashoffset:0;stroke-opacity:1;marker:none;marker-start:none;marker-mid:none;marker-end:none;paint-order:normal;enable-background:new" />
      <rect
         ry="7.9238095"
         rx="7.9238095"
         y="184.49524"
         x="12.495266"
         height="103.00952"
         width="103.00952"
         id="rect2896"
         style="display:inline;opacity:0.1;vector-effect:none;fill:none;fill-opacity:1;stroke:#000000;stroke-width:0.99;stroke-linecap:butt;stroke-linejoin:miter;stroke-miterlimit:4;stroke-dasharray:0.99, 0.99;stroke-dashoffset:0;stroke-opacity:1;marker:none;marker-start:none;marker-mid:none;marker-end:none;paint-order:normal;enable-background:new" />
      <rect
         ry="8.701005"
         rx="7.9292889"
         y="200.49496"
         x="8.4950066"
         height="87.010048"
         width="111.01004"
         id="rect2898"
         style="display:inline;opacity:0.1;vector-effect:none;fill:none;fill-opacity:1;stroke:#000000;stroke-width:0.99;stroke-linecap:butt;stroke-linejoin:miter;stroke-miterlimit:4;stroke-dasharray:0.99, 0.99;stroke-dashoffset:0;stroke-opacity:1;marker:none;marker-start:none;marker-mid:none;marker-end:none;paint-order:normal;enable-background:new" />
      <path
         inkscape:connector-curvature="0"
         id="path2900"
         d="M 2.6203015e-5,288.99999 H 128.00003"
         style="display:inline;fill:none;stroke:#62a0ea;stroke-width:2;stroke-linecap:butt;stroke-linejoin:miter;stroke-miterlimit:4;stroke-dasharray:none;stroke-opacity:1;enable-background:new" />
    </g>
  </g>
</svg>
