<svg height="128" width="128" xmlns="http://www.w3.org/2000/svg" xmlns:xlink="http://www.w3.org/1999/xlink"><defs><clipPath id="b"><path d="M0 0h192v152H0z"/></clipPath><clipPath id="d"><path d="M0 0h128v128H0z"/></clipPath><clipPath id="c"><path d="M0 0h128v128H0z"/></clipPath><clipPath id="k"><path d="M0 0h128v128H0z"/></clipPath><clipPath id="i"><path d="M0 0h128v128H0z"/></clipPath><mask id="h"><g filter="url(#a)"><path fill-opacity=".461" d="M0 0h128v128H0z"/></g></mask><mask id="f"><g filter="url(#a)"><path fill-opacity=".461" d="M0 0h128v128H0z"/></g></mask><mask id="j"><g clip-path="url(#c)" filter="url(#a)"><g clip-path="url(#d)"><path d="M20 16h88a8 8 0 018 8v84a8 8 0 01-8 8H20a8 8 0 01-8-8V24a8 8 0 018-8zm0 0" fill="url(#e)"/><path d="M20 12h88a8 8 0 018 8v84a8 8 0 01-8 8H20a8 8 0 01-8-8V20a8 8 0 018-8zm0 0" fill="#deddda"/><path d="M14.387 109.645A7.97 7.97 0 0112 103.94V20.293c0-4.43 3.566-8 8-8h88c2.191 0 4.172.879 5.613 2.297zm0 0" fill="#f6f5f4"/><use mask="url(#f)" transform="translate(-8 -16)" xlink:href="#g"/><path d="M109.738 109.621a7.979 7.979 0 01-5.707 2.387h-84c-4.43 0-8-3.567-8-8v-83.75a7.96 7.96 0 012.297-5.613zm0 0" fill="#99c1f1"/><path d="M113.664 92.063c-.086 6.238-.086 21.667-.086 21.667a7.97 7.97 0 002.547-5.855V92.062zm0 0" fill="#813d9c"/><path d="M113.727 14.293A7.986 7.986 0 01116.113 20v84c0 4.434-3.566 8-8 8h-88a7.974 7.974 0 01-5.613-2.293zm0 0" fill="#c061cb"/><path d="M20 112a7.983 7.983 0 01-5.676-2.352l48.664-46.566 50.625 46.715C112.172 111.219 110.191 112 108 112zm0 0" fill="#57e389"/><path d="M98.441 63.574c1.227-.754 1.938-1.914 1.938-3.402 0-2.906-2.598-4.723-6.402-4.723-3.758 0-6.356 1.817-6.356 4.723 0 1.488.688 2.648 1.914 3.402-1.582.805-2.504 2.125-2.504 3.899 0 3.117 2.766 5.078 6.946 5.078 4.203 0 6.992-1.961 6.992-5.078 0-1.774-.922-3.094-2.528-3.899zm-4.464-5.316c1.558 0 2.597.781 2.597 2.082 0 1.25-1.015 2.031-2.597 2.031-1.559 0-2.551-.781-2.551-2.031 0-1.3 1.015-2.082 2.55-2.082zm0 11.484c-1.891 0-3.07-.922-3.07-2.387 0-1.464 1.179-2.363 3.07-2.363 1.914 0 3.117.899 3.117 2.363 0 1.465-1.203 2.387-3.117 2.387zm0 0" fill="#fff"/><path d="M36.145 62.453c-1.727 0-3.122.496-4.09 1.465.12-3.164 1.89-4.793 4.656-4.793 1.11 0 2.172.21 3.094.824l1.418-2.808c-1.16-.735-2.86-1.133-4.606-1.133-4.984 0-8.433 3.187-8.433 8.902 0 5.34 2.832 8.2 7.39 8.2 3.496 0 6.262-2.126 6.262-5.505 0-3.117-2.504-5.152-5.691-5.152zm-.782 7.797c-1.843 0-2.906-1.04-2.906-2.457 0-1.441 1.184-2.48 2.86-2.48 1.699 0 2.812.968 2.812 2.48s-1.137 2.457-2.766 2.457zm0 0M69.59 89.766h-2.668v-3.063h-3.578v3.063h-4.395l7.156-9.844H62.13L54.41 90.305v2.547h8.817v3.437h3.695v-3.437h2.668zm0 0M63.434 27.91c-3.332 0-5.965 2.024-5.965 5.242 0 2.97 2.386 4.907 5.426 4.907 1.64 0 2.992-.496 3.914-1.418-.114 3.035-1.825 4.59-4.434 4.59-1.078 0-2.094-.204-2.945-.79l-1.352 2.68c1.102.695 2.7 1.078 4.363 1.078 4.77 0 8.036-3.035 8.036-8.48 0-5.086-2.68-7.809-7.043-7.809zm.27 7.426c-1.622 0-2.68-.922-2.68-2.363s1.081-2.34 2.632-2.34c1.735 0 2.746.988 2.746 2.34 0 1.37-1.101 2.363-2.699 2.363zm0 0" fill="#3d3846"/></g></g></mask><mask id="l"><g filter="url(#a)"><path fill-opacity=".8" d="M0 0h128v128H0z"/></g></mask><linearGradient id="e" gradientUnits="userSpaceOnUse" x1="12" x2="114.93" y1="108" y2="108"><stop offset="0" stop-color="#57e389"/><stop offset=".058" stop-color="#26a269"/><stop offset=".099" stop-color="#1a7049"/><stop offset=".955" stop-color="#26a269"/><stop offset="1" stop-color="#2ec27e"/></linearGradient><linearGradient id="m" gradientTransform="matrix(0 .37 -.98462 0 295.385 -30.36)" gradientUnits="userSpaceOnUse" x1="300" x2="428" y1="235" y2="235"><stop offset="0" stop-color="#f9f06b"/><stop offset="1" stop-color="#f5c211"/></linearGradient><filter id="a" height="100%" width="100%" x="0%" y="0%"><feColorMatrix in="SourceGraphic" values="0 0 0 0 1 0 0 0 0 1 0 0 0 0 1 0 0 0 1 0"/></filter><g id="g" clip-path="url(#b)"><path d="M22.36 34.32A7.976 7.976 0 0020 40v84c0 2.227.902 4.23 2.36 5.68zm0 0" fill="#1c71d8"/></g></defs><path d="M20 16h88a8 8 0 018 8v84a8 8 0 01-8 8H20a8 8 0 01-8-8V24a8 8 0 018-8zm0 0" fill="url(#e)"/><path d="M20 12h88a8 8 0 018 8v84a8 8 0 01-8 8H20a8 8 0 01-8-8V20a8 8 0 018-8zm0 0" fill="#deddda"/><path d="M14.387 109.645A7.97 7.97 0 0112 103.94V20.293c0-4.43 3.566-8 8-8h88c2.191 0 4.172.879 5.613 2.297zm0 0" fill="#f6f5f4"/><use mask="url(#h)" transform="translate(-8 -16)" xlink:href="#g"/><path d="M109.738 109.621a7.979 7.979 0 01-5.707 2.387h-84c-4.43 0-8-3.567-8-8v-83.75a7.96 7.96 0 012.297-5.613zm0 0" fill="#99c1f1"/><path d="M113.664 92.063c-.086 6.238-.086 21.667-.086 21.667a7.97 7.97 0 002.547-5.855V92.062zm0 0" fill="#813d9c"/><path d="M113.727 14.293A7.986 7.986 0 01116.113 20v84c0 4.434-3.566 8-8 8h-88a7.974 7.974 0 01-5.613-2.293zm0 0" fill="#c061cb"/><path d="M20 112a7.983 7.983 0 01-5.676-2.352l48.664-46.566 50.625 46.715C112.172 111.219 110.191 112 108 112zm0 0" fill="#57e389"/><path d="M98.441 63.574c1.227-.754 1.938-1.914 1.938-3.402 0-2.906-2.598-4.723-6.402-4.723-3.758 0-6.356 1.817-6.356 4.723 0 1.488.688 2.648 1.914 3.402-1.582.805-2.504 2.125-2.504 3.899 0 3.117 2.766 5.078 6.946 5.078 4.203 0 6.992-1.961 6.992-5.078 0-1.774-.922-3.094-2.528-3.899zm-4.464-5.316c1.558 0 2.597.781 2.597 2.082 0 1.25-1.015 2.031-2.597 2.031-1.559 0-2.551-.781-2.551-2.031 0-1.3 1.015-2.082 2.55-2.082zm0 11.484c-1.891 0-3.07-.922-3.07-2.387 0-1.464 1.179-2.363 3.07-2.363 1.914 0 3.117.899 3.117 2.363 0 1.465-1.203 2.387-3.117 2.387zm0 0" fill="#fff"/><g fill="#3d3846"><path d="M36.145 62.453c-1.727 0-3.122.496-4.09 1.465.12-3.164 1.89-4.793 4.656-4.793 1.11 0 2.172.21 3.094.824l1.418-2.808c-1.16-.735-2.86-1.133-4.606-1.133-4.984 0-8.433 3.187-8.433 8.902 0 5.34 2.832 8.2 7.39 8.2 3.496 0 6.262-2.126 6.262-5.505 0-3.117-2.504-5.152-5.691-5.152zm-.782 7.797c-1.843 0-2.906-1.04-2.906-2.457 0-1.441 1.184-2.48 2.86-2.48 1.699 0 2.812.968 2.812 2.48s-1.137 2.457-2.766 2.457zm0 0M69.59 89.766h-2.668v-3.063h-3.578v3.063h-4.395l7.156-9.844H62.13L54.41 90.305v2.547h8.817v3.437h3.695v-3.437h2.668zm0 0M63.434 27.91c-3.332 0-5.965 2.024-5.965 5.242 0 2.97 2.386 4.907 5.426 4.907 1.64 0 2.992-.496 3.914-1.418-.114 3.035-1.825 4.59-4.434 4.59-1.078 0-2.094-.204-2.945-.79l-1.352 2.68c1.102.695 2.7 1.078 4.363 1.078 4.77 0 8.036-3.035 8.036-8.48 0-5.086-2.68-7.809-7.043-7.809zm.27 7.426c-1.622 0-2.68-.922-2.68-2.363s1.081-2.34 2.632-2.34c1.735 0 2.746.988 2.746 2.34 0 1.37-1.101 2.363-2.699 2.363zm0 0"/></g><g clip-path="url(#i)" mask="url(#j)"><g clip-path="url(#k)" mask="url(#l)"><path d="M128 80.64V128H0V80.64zm0 0" fill="url(#m)"/><path d="M13.309 80.64L60.664 128H81.88l-47.36-47.36zm42.421 0L103.094 128h21.215L76.945 80.64zm42.43 0L128 110.48V89.27l-8.629-8.63zM0 88.548v21.215L18.238 128h21.215zm0 0"/></g></g></svg>